<mxfile host="drawio-plugin" modified="2023-02-01T01:44:16.769Z" agent="5.0 (Macintosh; Intel Mac OS X 10_15_7) AppleWebKit/537.36 (KHTML, like Gecko) Chrome/104.0.5112.102 Safari/537.36" etag="NrzOTOh0H12Lku3GCSnr" version="20.5.3" type="embed"><diagram id="R2lEEEUBdFMjLlhIrx00" name="Page-1"><mxGraphModel dx="1444" dy="760" grid="1" gridSize="10" guides="1" tooltips="1" connect="1" arrows="1" fold="1" page="1" pageScale="1" pageWidth="850" pageHeight="1100" math="0" shadow="0" extFonts="Permanent Marker^https://fonts.googleapis.com/css?family=Permanent+Marker"><root><mxCell id="0"/><mxCell id="1" parent="0"/><mxCell id="3qQ0wnekR4z3eHCqmO7w-17" value="survey" style="whiteSpace=wrap;html=1;align=center;" parent="1" vertex="1"><mxGeometry x="360" y="200" width="120" height="40" as="geometry"/></mxCell><mxCell id="3qQ0wnekR4z3eHCqmO7w-18" value="survey_question" style="whiteSpace=wrap;html=1;align=center;" parent="1" vertex="1"><mxGeometry x="560" y="200" width="120" height="40" as="geometry"/></mxCell><mxCell id="3qQ0wnekR4z3eHCqmO7w-20" value="survey_visit" style="whiteSpace=wrap;html=1;align=center;" parent="1" vertex="1"><mxGeometry x="120" y="320" width="120" height="40" as="geometry"/></mxCell><mxCell id="3qQ0wnekR4z3eHCqmO7w-59" style="edgeStyle=orthogonalEdgeStyle;rounded=0;orthogonalLoop=1;jettySize=auto;html=1;entryX=0.75;entryY=0;entryDx=0;entryDy=0;strokeColor=default;endArrow=ERoneToMany;endFill=0;exitX=0.5;exitY=1;exitDx=0;exitDy=0;" parent="1" source="3qQ0wnekR4z3eHCqmO7w-57" target="3qQ0wnekR4z3eHCqmO7w-20" edge="1"><mxGeometry relative="1" as="geometry"><mxPoint x="500" y="410" as="sourcePoint"/></mxGeometry></mxCell><mxCell id="3qQ0wnekR4z3eHCqmO7w-22" value="survey_response" style="whiteSpace=wrap;html=1;align=center;" parent="1" vertex="1"><mxGeometry x="360" y="320" width="120" height="40" as="geometry"/></mxCell><mxCell id="3qQ0wnekR4z3eHCqmO7w-38" style="edgeStyle=orthogonalEdgeStyle;rounded=0;orthogonalLoop=1;jettySize=auto;html=1;exitX=1;exitY=0.5;exitDx=0;exitDy=0;entryX=0;entryY=0.5;entryDx=0;entryDy=0;strokeColor=default;endArrow=ERoneToMany;endFill=0;" parent="1" source="3qQ0wnekR4z3eHCqmO7w-17" target="3qQ0wnekR4z3eHCqmO7w-18" edge="1"><mxGeometry relative="1" as="geometry"><mxPoint x="590" y="250" as="sourcePoint"/><mxPoint x="590" y="370" as="targetPoint"/></mxGeometry></mxCell><mxCell id="3qQ0wnekR4z3eHCqmO7w-39" value="survey_answer" style="whiteSpace=wrap;html=1;align=center;" parent="1" vertex="1"><mxGeometry x="560" y="320" width="120" height="40" as="geometry"/></mxCell><mxCell id="3qQ0wnekR4z3eHCqmO7w-41" style="edgeStyle=orthogonalEdgeStyle;rounded=0;orthogonalLoop=1;jettySize=auto;html=1;exitX=0.5;exitY=1;exitDx=0;exitDy=0;strokeColor=default;endArrow=ERoneToMany;endFill=0;entryX=0.5;entryY=0;entryDx=0;entryDy=0;" parent="1" source="3qQ0wnekR4z3eHCqmO7w-18" target="3qQ0wnekR4z3eHCqmO7w-39" edge="1"><mxGeometry relative="1" as="geometry"><mxPoint x="390" y="250" as="sourcePoint"/><mxPoint x="700" y="300" as="targetPoint"/></mxGeometry></mxCell><mxCell id="3qQ0wnekR4z3eHCqmO7w-42" style="edgeStyle=orthogonalEdgeStyle;rounded=0;orthogonalLoop=1;jettySize=auto;html=1;exitX=1;exitY=0.5;exitDx=0;exitDy=0;strokeColor=default;endArrow=ERoneToMany;endFill=0;entryX=0;entryY=0.5;entryDx=0;entryDy=0;" parent="1" source="3qQ0wnekR4z3eHCqmO7w-22" target="3qQ0wnekR4z3eHCqmO7w-39" edge="1"><mxGeometry relative="1" as="geometry"><mxPoint x="710" y="250" as="sourcePoint"/><mxPoint x="710" y="310" as="targetPoint"/></mxGeometry></mxCell><mxCell id="3qQ0wnekR4z3eHCqmO7w-44" value="surveyor" style="whiteSpace=wrap;html=1;align=center;" parent="1" vertex="1"><mxGeometry x="40" y="40" width="120" height="40" as="geometry"/></mxCell><mxCell id="3qQ0wnekR4z3eHCqmO7w-45" style="edgeStyle=orthogonalEdgeStyle;rounded=0;orthogonalLoop=1;jettySize=auto;html=1;exitX=0.25;exitY=1;exitDx=0;exitDy=0;entryX=0.25;entryY=0;entryDx=0;entryDy=0;strokeColor=default;endArrow=ERoneToMany;endFill=0;" parent="1" source="3qQ0wnekR4z3eHCqmO7w-44" target="3qQ0wnekR4z3eHCqmO7w-20" edge="1"><mxGeometry relative="1" as="geometry"><mxPoint x="265" y="360" as="sourcePoint"/><mxPoint x="465" y="360" as="targetPoint"/></mxGeometry></mxCell><mxCell id="3qQ0wnekR4z3eHCqmO7w-51" style="edgeStyle=orthogonalEdgeStyle;rounded=0;orthogonalLoop=1;jettySize=auto;html=1;exitX=0.5;exitY=1;exitDx=0;exitDy=0;strokeColor=default;endArrow=ERoneToMany;endFill=0;entryX=0.5;entryY=0;entryDx=0;entryDy=0;" parent="1" source="3qQ0wnekR4z3eHCqmO7w-17" target="3qQ0wnekR4z3eHCqmO7w-22" edge="1"><mxGeometry relative="1" as="geometry"><mxPoint x="710" y="250" as="sourcePoint"/><mxPoint x="710" y="310" as="targetPoint"/></mxGeometry></mxCell><mxCell id="3qQ0wnekR4z3eHCqmO7w-55" value="" style="endArrow=none;html=1;rounded=0;dashed=1;dashPattern=1 2;strokeColor=default;exitX=1;exitY=0.5;exitDx=0;exitDy=0;entryX=0;entryY=0.5;entryDx=0;entryDy=0;" parent="1" source="3qQ0wnekR4z3eHCqmO7w-20" target="3qQ0wnekR4z3eHCqmO7w-22" edge="1"><mxGeometry relative="1" as="geometry"><mxPoint x="560" y="470" as="sourcePoint"/><mxPoint x="720" y="470" as="targetPoint"/></mxGeometry></mxCell><mxCell id="3qQ0wnekR4z3eHCqmO7w-56" value="1" style="resizable=0;html=1;align=right;verticalAlign=bottom;" parent="3qQ0wnekR4z3eHCqmO7w-55" connectable="0" vertex="1"><mxGeometry x="1" relative="1" as="geometry"/></mxCell><mxCell id="3qQ0wnekR4z3eHCqmO7w-57" value="home" style="whiteSpace=wrap;html=1;align=center;" parent="1" vertex="1"><mxGeometry x="200" y="200" width="120" height="40" as="geometry"/></mxCell><mxCell id="2" value="assignment" style="whiteSpace=wrap;html=1;align=center;" parent="1" vertex="1"><mxGeometry x="120" y="120" width="120" height="40" as="geometry"/></mxCell><mxCell id="3" style="edgeStyle=orthogonalEdgeStyle;rounded=0;orthogonalLoop=1;jettySize=auto;html=1;entryX=0.25;entryY=0;entryDx=0;entryDy=0;strokeColor=default;endArrow=ERoneToMany;endFill=0;exitX=0.75;exitY=1;exitDx=0;exitDy=0;" parent="1" source="3qQ0wnekR4z3eHCqmO7w-44" target="2" edge="1"><mxGeometry relative="1" as="geometry"><mxPoint x="170" y="190" as="sourcePoint"/><mxPoint x="160" y="330" as="targetPoint"/></mxGeometry></mxCell><mxCell id="5" style="edgeStyle=orthogonalEdgeStyle;rounded=0;orthogonalLoop=1;jettySize=auto;html=1;exitX=0.75;exitY=1;exitDx=0;exitDy=0;entryX=0.5;entryY=0;entryDx=0;entryDy=0;strokeColor=default;endArrow=ERoneToMany;endFill=0;" edge="1" parent="1" source="2" target="3qQ0wnekR4z3eHCqmO7w-57"><mxGeometry relative="1" as="geometry"><mxPoint x="300" y="80" as="sourcePoint"/><mxPoint x="350" y="160" as="targetPoint"/></mxGeometry></mxCell></root></mxGraphModel></diagram></mxfile>